<svg width="25" height="32" viewBox="0 0 25 32" fill="none" xmlns="http://www.w3.org/2000/svg">
<path d="M7.53968 4.26985H4.26984C3.40263 4.26985 2.57093 4.61435 1.95771 5.22756C1.3445 5.84078 1 6.67247 1 7.53969V27.1587C1 28.026 1.3445 28.8576 1.95771 29.4709C2.57093 30.0841 3.40263 30.4286 4.26984 30.4286H20.619C21.4863 30.4286 22.318 30.0841 22.9312 29.4709C23.5444 28.8576 23.8889 28.026 23.8889 27.1587V7.53969C23.8889 6.67247 23.5444 5.84078 22.9312 5.22756C22.318 4.61435 21.4863 4.26985 20.619 4.26985H17.3492" stroke="white" stroke-width="2" stroke-linecap="round" stroke-linejoin="round"/>
<path d="M15.7142 14.0794H11.6269C10.9765 14.0794 10.3527 14.3377 9.89279 14.7977C9.43288 15.2576 9.1745 15.8813 9.1745 16.5317C9.1745 17.1822 9.43288 17.8059 9.89279 18.2658C10.3527 18.7258 10.9765 18.9841 11.6269 18.9841H13.2618C13.9122 18.9841 14.536 19.2425 14.9959 19.7024C15.4558 20.1623 15.7142 20.7861 15.7142 21.4365C15.7142 22.0869 15.4558 22.7107 14.9959 23.1706C14.536 23.6305 13.9122 23.8889 13.2618 23.8889H9.1745M12.4443 23.8889V25.5238M12.4443 12.4444V14.0794M7.53958 4.26984C7.53958 3.40263 7.88408 2.57093 8.4973 1.95771C9.11051 1.3445 9.94221 1 10.8094 1H14.0793C14.9465 1 15.7782 1.3445 16.3914 1.95771C17.0046 2.57093 17.3491 3.40263 17.3491 4.26984C17.3491 5.13706 17.0046 5.96875 16.3914 6.58197C15.7782 7.19518 14.9465 7.53968 14.0793 7.53968H10.8094C9.94221 7.53968 9.11051 7.19518 8.4973 6.58197C7.88408 5.96875 7.53958 5.13706 7.53958 4.26984Z" stroke="white" stroke-width="2" stroke-linecap="round" stroke-linejoin="round"/>
</svg>
