<svg width="28" height="18" viewBox="0 0 28 18" fill="none" xmlns="http://www.w3.org/2000/svg">
<path d="M8.62667 13.3333L4.66667 17.3333C4.22667 17.7333 3.64 18 3 18C2.38116 18 1.78767 17.7542 1.35009 17.3166C0.912501 16.879 0.666668 16.2855 0.666668 15.6667V15.3333L2 5.49333C2.13441 3.99417 2.82446 2.59943 3.93462 1.58302C5.04478 0.566607 6.49483 0.00197141 8 0H20C23.1467 0 25.72 2.41333 26 5.49333L27.3333 15.3333V15.6667C27.3333 16.2855 27.0875 16.879 26.6499 17.3166C26.2123 17.7542 25.6188 18 25 18C24.36 18 23.7733 17.7333 23.3333 17.3333L19.3733 13.3333H8.62667ZM7.33333 2.66667V5.33333H4.66667V6.66667H7.33333V9.33333H8.66667V6.66667H11.3333V5.33333H8.66667V2.66667H7.33333ZM20 2.66667C19.7348 2.66667 19.4804 2.77202 19.2929 2.95956C19.1054 3.1471 19 3.40145 19 3.66667C19 3.93188 19.1054 4.18624 19.2929 4.37377C19.4804 4.56131 19.7348 4.66667 20 4.66667C20.2652 4.66667 20.5196 4.56131 20.7071 4.37377C20.8946 4.18624 21 3.93188 21 3.66667C21 3.40145 20.8946 3.1471 20.7071 2.95956C20.5196 2.77202 20.2652 2.66667 20 2.66667ZM17.6667 5C17.4015 5 17.1471 5.10536 16.9596 5.29289C16.772 5.48043 16.6667 5.73478 16.6667 6C16.6667 6.26522 16.772 6.51957 16.9596 6.70711C17.1471 6.89464 17.4015 7 17.6667 7C17.9319 7 18.1862 6.89464 18.3738 6.70711C18.5613 6.51957 18.6667 6.26522 18.6667 6C18.6667 5.73478 18.5613 5.48043 18.3738 5.29289C18.1862 5.10536 17.9319 5 17.6667 5ZM22.3333 5C22.0681 5 21.8138 5.10536 21.6262 5.29289C21.4387 5.48043 21.3333 5.73478 21.3333 6C21.3333 6.26522 21.4387 6.51957 21.6262 6.70711C21.8138 6.89464 22.0681 7 22.3333 7C22.5986 7 22.8529 6.89464 23.0404 6.70711C23.228 6.51957 23.3333 6.26522 23.3333 6C23.3333 5.73478 23.228 5.48043 23.0404 5.29289C22.8529 5.10536 22.5986 5 22.3333 5ZM20 7.33333C19.7348 7.33333 19.4804 7.43869 19.2929 7.62623C19.1054 7.81376 19 8.06812 19 8.33333C19 8.59855 19.1054 8.8529 19.2929 9.04044C19.4804 9.22798 19.7348 9.33333 20 9.33333C20.2652 9.33333 20.5196 9.22798 20.7071 9.04044C20.8946 8.8529 21 8.59855 21 8.33333C21 8.06812 20.8946 7.81376 20.7071 7.62623C20.5196 7.43869 20.2652 7.33333 20 7.33333Z" fill="black"/>
</svg>
