<svg width="30" height="27" viewBox="0 0 30 27" fill="none" xmlns="http://www.w3.org/2000/svg">
<path d="M26.3287 14.166L14.8248 25.5595L10.3828 21.1604M1.00024 8.73003C0.987421 7.11237 1.48646 5.53208 2.42598 4.21515C3.36551 2.89823 4.69741 1.91212 6.2312 1.39785C7.765 0.883577 9.42213 0.867483 10.9656 1.35187C12.5091 1.83625 13.8599 2.79631 14.8248 4.09473C15.4591 3.25115 16.2607 2.54757 17.1795 2.02803C18.0982 1.50849 19.1143 1.18417 20.1641 1.07538C21.2139 0.966584 22.2749 1.07565 23.2806 1.39576C24.2864 1.71586 25.2152 2.24011 26.009 2.9357C26.8028 3.63129 27.4445 4.48324 27.8939 5.43822C28.3433 6.39321 28.5908 7.43068 28.6208 8.4857C28.6508 9.54073 28.4627 10.5906 28.0683 11.5696C27.6739 12.5486 27.0817 13.4356 26.3287 14.1752" stroke="#010D0B" stroke-width="2" stroke-linecap="round" stroke-linejoin="round"/>
<path d="M1.02023 13.2886H4.08794L7.15564 17.8902L10.2233 8.68706L11.7572 13.2886H16.3587" stroke="#010D0B" stroke-width="2" stroke-linecap="round" stroke-linejoin="round"/>
</svg>
