<svg width="21" height="25" viewBox="0 0 21 25" fill="none" xmlns="http://www.w3.org/2000/svg">
<path d="M20.2863 19.059L13.9719 10.293V1.76325H15.7183V0H5.23946V1.76325H6.98594V10.293L0.671546 19.059C0.290668 19.5875 0.0620349 20.212 0.0109451 20.8636C-0.0401446 21.5151 0.0883009 22.1682 0.382069 22.7506C0.675837 23.333 1.12347 23.822 1.67545 24.1635C2.22742 24.505 2.86221 24.6857 3.50957 24.6855H17.4473C18.0947 24.6857 18.7295 24.505 19.2815 24.1635C19.8334 23.822 20.2811 23.333 20.5749 22.7506C20.8686 22.1682 20.9971 21.5151 20.946 20.8636C20.8949 20.212 20.6671 19.5875 20.2863 19.059ZM8.73242 10.866V1.76325H12.2254V10.866L14.5595 14.106H6.39825L8.73242 10.866ZM17.4482 22.9222H3.51045C3.18542 22.9219 2.86681 22.8309 2.58978 22.6592C2.31275 22.4876 2.08808 22.2421 1.94056 21.9497C1.79303 21.6572 1.7284 21.3294 1.75379 21.0022C1.77919 20.6751 1.89361 20.3614 2.08445 20.0958L5.12856 15.8692H15.8292L18.8742 20.0958C19.0651 20.3614 19.1795 20.6751 19.2049 21.0022C19.2303 21.3294 19.1656 21.6572 19.0181 21.9497C18.8706 22.2421 18.6459 22.4876 18.3689 22.6592C18.0919 22.8309 17.7733 22.9219 17.4482 22.9222Z" fill="white"/>
</svg>
