<svg width="25" height="25" viewBox="0 0 25 25" fill="none" xmlns="http://www.w3.org/2000/svg">
<mask id="mask0_74_185" style="mask-type:luminance" maskUnits="userSpaceOnUse" x="0" y="0" width="25" height="25">
<path d="M9.56818 23.5C9.00973 21.7026 8.16729 20.3626 7.04088 19.4798C5.35127 18.1563 2.66669 18.9792 1.67515 17.6134C0.683605 16.2477 2.3698 13.7367 2.96131 12.2551C3.55281 10.7734 0.693292 10.2498 1.02723 9.829C1.24947 9.5485 2.69481 8.73925 5.36324 7.40125C6.12114 3.13375 8.92121 1 13.7634 1C21.0268 1 23.794 7.07838 23.794 10.945C23.794 14.8105 20.4433 18.9753 15.6702 19.8736C15.2435 20.4871 15.859 21.6959 17.5165 23.5" stroke="white" stroke-width="1.67" stroke-linecap="round" stroke-linejoin="round"/>
<path fill-rule="evenodd" clip-rule="evenodd" d="M9.83259 6.90626C9.45991 8.33163 9.57065 9.33269 10.1648 9.90944C10.7586 10.4858 11.7707 10.8627 13.201 11.0401C12.8762 12.8787 13.2718 13.7412 14.388 13.6276C15.5038 13.5143 16.1743 13.0568 16.3996 12.2551C18.1433 12.7388 19.0885 12.3338 19.2352 11.0401C19.4546 9.09944 18.3946 7.55201 17.9598 7.55201C17.525 7.55201 16.3996 7.49969 16.3996 6.90626C16.3996 6.31282 15.0844 5.97813 13.8974 5.97813C12.7103 5.97813 13.4244 5.18782 11.7946 5.50001C10.7081 5.70813 10.0541 6.17688 9.83259 6.90626Z" fill="#555555" stroke="white" stroke-width="1.67" stroke-linejoin="round"/>
<path d="M16.101 13.0938C15.5214 13.4487 14.7265 14.0388 14.3914 14.5C13.5543 15.6531 12.8756 16.3551 12.7274 17.092" stroke="white" stroke-width="1.67" stroke-linecap="round"/>
</mask>
<g mask="url(#mask0_74_185)">
<path d="M-1.27954 -1.25H26.0734V25.75H-1.27954V-1.25Z" fill="white"/>
</g>
</svg>
