<svg width="26" height="18" viewBox="0 0 26 18" fill="none" xmlns="http://www.w3.org/2000/svg">
<path d="M12.9718 2.97849C12.2871 2.97849 11.631 3.25311 11.1476 3.74116C10.6643 4.22912 10.3932 4.89043 10.3932 5.57949C10.3932 6.26855 10.6643 6.92987 11.1476 7.41783C11.631 7.90587 12.2871 8.18049 12.9718 8.18049C13.6565 8.18049 14.3126 7.90587 14.796 7.41783C15.2793 6.92987 15.5504 6.26855 15.5504 5.57949C15.5504 4.89043 15.2793 4.22912 14.796 3.74116C14.3126 3.25311 13.6565 2.97849 12.9718 2.97849ZM8.56453 5.57949C8.56453 4.39798 9.02944 3.26534 9.85623 2.43061C10.6829 1.59596 11.8037 1.12749 12.9718 1.12749C14.1399 1.12749 15.2607 1.59596 16.0874 2.43061C16.9142 3.26534 17.3791 4.39798 17.3791 5.57949C17.3791 6.761 16.9142 7.89365 16.0874 8.72838C15.2607 9.56303 14.1399 10.0315 12.9718 10.0315C11.8037 10.0315 10.6829 9.56303 9.85623 8.72838C9.02944 7.89365 8.56453 6.761 8.56453 5.57949ZM17.8791 5.57949C17.8791 4.70974 18.2213 3.87609 18.8298 3.26181C19.4381 2.64761 20.2627 2.30299 21.122 2.30299C21.9814 2.30299 22.806 2.64761 23.4143 3.26181C24.0228 3.87609 24.365 4.70974 24.365 5.57949C24.365 6.44924 24.0228 7.28289 23.4143 7.89717C22.806 8.51138 21.9814 8.85599 21.122 8.85599C20.2627 8.85599 19.4381 8.51138 18.8298 7.89717C18.2213 7.28289 17.8791 6.44924 17.8791 5.57949ZM7.11385 3.26181C7.72229 3.87609 8.06453 4.70974 8.06453 5.57949C8.06453 6.44924 7.72229 7.28289 7.11385 7.89717C6.50549 8.51138 5.68088 8.85599 4.82157 8.85599C3.96226 8.85599 3.13766 8.51138 2.5293 7.89717C1.92086 7.28289 1.57861 6.44924 1.57861 5.57949C1.57861 4.70974 1.92086 3.87609 2.5293 3.26181C3.13766 2.64761 3.96226 2.30299 4.82157 2.30299C5.68088 2.30299 6.50549 2.64761 7.11385 3.26181ZM21.122 4.15399C20.7462 4.15399 20.3862 4.30477 20.1211 4.57236C19.8562 4.83987 19.7077 5.20219 19.7077 5.57949C19.7077 5.95679 19.8562 6.31911 20.1211 6.58663C20.3862 6.85422 20.7462 7.00499 21.122 7.00499C21.4979 7.00499 21.8579 6.85422 22.123 6.58663C22.3879 6.31911 22.5364 5.95679 22.5364 5.57949C22.5364 5.20219 22.3879 4.83987 22.123 4.57236C21.8579 4.30477 21.4979 4.15399 21.122 4.15399ZM4.82157 4.15399C4.44569 4.15399 4.0857 4.30477 3.82065 4.57236C3.55569 4.83987 3.40725 5.20219 3.40725 5.57949C3.40725 5.95679 3.55569 6.31911 3.82065 6.58663C4.0857 6.85422 4.4457 7.00499 4.82157 7.00499C5.19745 7.00499 5.55744 6.85422 5.82249 6.58663C6.08746 6.31911 6.23589 5.95679 6.23589 5.57949C6.23589 5.20219 6.08746 4.83987 5.82249 4.57236C5.55744 4.30477 5.19745 4.15399 4.82157 4.15399Z" fill="black" stroke="black" stroke-width="0.5"/>
<path d="M18.8884 10.1574L18.6745 10.5315H19.1055H23.1387H23.5696L23.3557 10.1574C23.1296 9.7621 22.8043 9.43358 22.4122 9.20505C22.0201 8.97651 21.5751 8.85609 21.1221 8.85609C20.669 8.85609 20.224 8.97651 19.8319 9.20505C19.4398 9.43358 19.1145 9.7621 18.8884 10.1574ZM2.58797 10.1574L2.374 10.5315H2.80498H6.83819H7.26917L7.0552 10.1574C6.82914 9.7621 6.50383 9.43358 6.11174 9.20505C5.71964 8.97651 5.27467 8.85609 4.82158 8.85609C4.3685 8.85609 3.92353 8.97651 3.53142 9.20505C3.13934 9.43358 2.81403 9.7621 2.58797 10.1574ZM16.7159 11.3553C16.7418 10.2106 17.2034 9.11886 18.0065 8.3081C18.8332 7.47345 19.9539 7.00499 21.1221 7.00499C22.2902 7.00499 23.4109 7.47345 24.2376 8.3081C25.0644 9.14283 25.5293 10.2755 25.5293 11.457V12.3825H17.7334L16.7159 11.3553ZM0.414307 11.457C0.414307 10.2755 0.879218 9.14283 1.70601 8.3081C2.53272 7.47345 3.65348 7.00499 4.82158 7.00499C5.98969 7.00499 7.11045 7.47345 7.93716 8.3081C8.7402 9.11886 9.20185 10.2106 9.22771 11.3553L8.21029 12.3825H0.414307V11.457Z" fill="black" stroke="black" stroke-width="0.5"/>
<path d="M6.8175 12.2241C6.43485 13.0927 6.2367 14.0328 6.2359 14.9836L6.8175 12.2241ZM6.8175 12.2241C7.20015 11.3554 7.75879 10.5775 8.45724 9.9405M6.8175 12.2241L8.45724 9.9405M8.45724 9.9405C9.15569 9.30346 9.97847 8.8214 10.8725 8.52525M8.45724 9.9405L10.8725 8.52525M10.8725 8.52525C11.7665 8.2291 12.7119 8.12539 13.648 8.22076M10.8725 8.52525L13.648 8.22076M13.648 8.22076C14.584 8.31614 15.49 8.60851 16.3075 9.07911M13.648 8.22076L16.3075 9.07911M16.3075 9.07911C17.125 9.54972 17.8359 10.1882 18.3943 10.9534M16.3075 9.07911L18.3943 10.9534M18.3943 10.9534C18.9527 11.7187 19.3462 12.5937 19.5492 13.5222M18.3943 10.9534L19.5492 13.5222M19.5492 13.5222C19.7523 14.4507 19.7603 15.4118 19.5729 16.3436M19.5492 13.5222L19.5729 16.3436M19.5729 16.3436L19.4236 17.0845H6.52004L6.37073 16.3437C6.28087 15.8961 6.2357 15.4405 6.2359 14.9837L19.5729 16.3436ZM8.06454 14.9835V15.2335H8.31454H17.6291H17.8791V14.9835C17.8791 13.6709 17.3627 12.4116 16.4426 11.4827C15.5225 10.5538 14.2741 10.0315 12.9718 10.0315C11.6696 10.0315 10.4211 10.5538 9.50101 11.4827C8.58098 12.4116 8.06454 13.6709 8.06454 14.9835Z" fill="black" stroke="black" stroke-width="0.5"/>
</svg>
